# xmcd
#
# Track frame offsets: 
#        150
#        46647
#        52132
#        127569
#        146777
#        180262
#        196520
#        200981
#        246412
#        280297
#        295733
#        313408
#
# Disc length: 4401 seconds
#
# Revision: 0
# Processed by: cddbd v1.5.2PL0 Copyright (c) Steve Scherf et al.
# Submitted via: ExactAudioCopy v0.95b4
#
DISCID=b5112f0c
DTITLE=Tetuzi Akiyama - Solo Works 2001 - 2005
DYEAR=2006
DGENRE=Improvised
TTITLE0=Remider (Relator, 2001)
TTITLE1=Return (Relator, 2001)
TTITLE2=Léthargie (Résophonie, 2002)
TTITLE3=Résurrection (Résophonie, 2002)
TTITLE4=Don't Forget to Boogie (Don't Forget to Boogie, 2003)
TTITLE5=Improvisation #1 (Enha 4, 2003)
TTITLE6=Improvisation #5 (Enha 4, 2003)
TTITLE7=Helio Secularism (Unreleased, 2003)
TTITLE8=Tried to Catch the Last Sun (Route 13 to the Gates of Hell, 20
TTITLE8=05)
TTITLE9=Promised Thing Blues (Route 13 to the Gates of Hell, 2005)
TTITLE10=Atheist (Pre-Existence, 2005)
TTITLE11=Yearnings (Pre-Existence, 2005)
EXTD=
EXTT0=
EXTT1=
EXTT2=
EXTT3=
EXTT4=
EXTT5=
EXTT6=
EXTT7=
EXTT8=
EXTT9=
EXTT10=
EXTT11=
PLAYORDER=
